# xmcd
# Copyright (C) 1995-1998 Ti Kan
#
# Track frame offsets:
#       150
#       16157
#       29540
#       46532
#       63485
#       79399
#       95160
#       107138
#       121508
#       141609
#       157673
#       174781
#
# Disc length: 2528 seconds
#
# Revision: 0
# Processed by: cddbd v1.4b42PL1 Copyright (c) Steve Scherf et al.
# Submitted via: CD-Transfer v1.0
#
DISCID=9009de0c
DTITLE=Hang Loose - Perfect World
DYEAR=2001
DGENRE=
TTITLE0=Come and Stay
TTITLE1=Die Pretty
TTITLE2=Only Me, Only You
TTITLE3=Fine Day
TTITLE4=Perfect World
TTITLE5=Hope
TTITLE6=Lonesome Cowboy
TTITLE7=Come If You Dare
TTITLE8=Rock and Roll Band
TTITLE9=Turn On Your Radio
TTITLE10=Dreamin On
TTITLE11=Sittin On The Docks
EXTD=
EXTT0=
EXTT1=
EXTT2=
EXTT3=
EXTT4=
EXTT5=
EXTT6=
EXTT7=
EXTT8=
EXTT9=
EXTT10=
EXTT11=
PLAYORDER=
